<mxfile host="app.diagrams.net" modified="2024-07-30T01:29:18.659Z" agent="Mozilla/5.0 (Windows NT 10.0; Win64; x64) AppleWebKit/537.36 (KHTML, like Gecko) Chrome/127.0.0.0 Safari/537.36" version="24.7.0" etag="dug70BJ61j6sAWeTbLB-" type="github">
  <diagram name="Trang-1" id="jsUcRIqz58Zk3P--02S9">
    <mxGraphModel>
      <root>
        <mxCell id="0" />
        <mxCell id="1" parent="0" />
      </root>
    </mxGraphModel>
  </diagram>
</mxfile>
